<svg xmlns="http://www.w3.org/2000/svg" width="21" height="22" viewBox="0 0 21 22" fill="none">
<defs id="defs3051"><style type="text/css" id="current-color-scheme">.ColorScheme-Text { color: #232629; }</style></defs><path d="M5.6 18C5.82091 18 6 17.8209 6 17.6V16H4.4C4.17909 16 4 16.1791 4 16.4V17.6C4 17.8209 4.17909 18 4.4 18H5.6Z" fill="currentColor" class="ColorScheme-Text" />
<path d="M7.6 16C7.82091 16 8 15.8209 8 15.6V14H6.4C6.17909 14 6 14.1791 6 14.4V16H7.6Z" fill="currentColor" class="ColorScheme-Text" />
<path d="M9.6 14C9.82091 14 10 13.8209 10 13.6V12H8.4C8.17909 12 8 12.1791 8 12.4V14H9.6Z" fill="currentColor" class="ColorScheme-Text" />
<path d="M11.6 12C11.8209 12 12 11.8209 12 11.6V10.4C12 10.1791 11.8209 10 11.6 10H10V12H11.6Z" fill="currentColor" class="ColorScheme-Text" />
<path d="M10 10V8.4C10 8.17909 9.82091 8 9.6 8H8V9.6C8 9.82091 8.17909 10 8.4 10H10Z" fill="currentColor" class="ColorScheme-Text" />
<path d="M8 8V6.4C8 6.17909 7.82091 6 7.6 6H6V7.6C6 7.82091 6.17909 8 6.4 8H8Z" fill="currentColor" class="ColorScheme-Text" />
<path d="M6 6V4.4C6 4.17909 5.82091 4 5.6 4H4.4C4.17909 4 4 4.17909 4 4.4V5.6C4 5.82091 4.17909 6 4.4 6H6Z" fill="currentColor" class="ColorScheme-Text" />
<rect x="15" y="10" width="2" height="2" rx="0.4" fill="currentColor" class="ColorScheme-Text" />
</svg>