<svg xmlns="http://www.w3.org/2000/svg" width="18" height="16" viewBox="0 0 18 16" fill="none">
<defs id="defs3051"><style type="text/css" id="current-color-scheme">.ColorScheme-Text { color: #232629; }</style></defs><path d="M0.5 6C0.223858 6 0 6.22386 0 6.5V8C0 10.2766 1.52147 12.1982 3.60316 12.8027C3.83153 12.869 4 13.0713 4 13.3091V14.9259C4 14.9668 3.96684 15 3.92593 15H2.5C2.22386 15 2 15.2239 2 15.5C2 15.7761 2.22386 16 2.5 16H7.5C7.77614 16 8 15.7761 8 15.5C8 15.2239 7.77614 15 7.5 15H6.05128C6.02296 15 6 14.977 6 14.9487V13.3091C6 13.0713 6.16847 12.869 6.39684 12.8027C8.47853 12.1982 10 10.2766 10 8V6.5C10 6.22386 9.77614 6 9.5 6C9.22386 6 9 6.22386 9 6.5V8C9 10.2091 7.20914 12 5 12C2.79086 12 1 10.2091 1 8V6.5C1 6.22386 0.776142 6 0.5 6ZM5 0C3.34315 0 2 1.34315 2 3V8C2 9.65685 3.34315 11 5 11C6.65685 11 8 9.65685 8 8V3C8 1.34315 6.65685 0 5 0Z" fill="currentColor" class="ColorScheme-Text" />
<path d="M12.7714 1.05273C12.5254 0.928654 12.2251 1.02793 12.1008 1.27383C11.9761 1.52037 12.0757 1.82243 12.3221 1.94727C13.4333 2.50819 14.3885 3.38525 15.0409 4.44531C15.6932 5.50538 16.0468 6.75529 16.0468 8C16.0468 9.24471 15.6932 10.4946 15.0409 11.5547C14.3885 12.6148 13.4333 13.4918 12.3221 14.0527C12.0757 14.1776 11.9761 14.4796 12.1008 14.7262C12.2251 14.9721 12.5254 15.0713 12.7714 14.9473C14.0507 14.3014 15.1414 13.2986 15.8925 12.0781C16.6435 10.8576 17.0468 9.43312 17.0468 8C17.0468 6.56688 16.6435 5.1424 15.8925 3.92188C15.1414 2.70135 14.0507 1.69856 12.7714 1.05273Z" fill="currentColor" class="ColorScheme-Text" />
<path d="M11.7029 3.79234C11.4683 3.64681 11.1675 3.75202 11.0467 4.0002C10.9259 4.24822 11.0311 4.54479 11.2616 4.69643C11.7367 5.00908 12.1467 5.42548 12.4471 5.90625C12.8357 6.52795 13.0468 7.26686 13.0468 8C13.0468 8.73314 12.8357 9.47205 12.4471 10.0938C12.1467 10.5745 11.7367 10.9909 11.2616 11.3036C11.0311 11.4552 10.9259 11.7518 11.0467 11.9998C11.1675 12.248 11.4683 12.3532 11.7029 12.2077C12.3449 11.8093 12.8935 11.2652 13.2948 10.623C13.7845 9.83947 14.0468 8.92403 14.0468 8C14.0468 7.07597 13.7845 6.16053 13.2948 5.37695C12.8935 4.73484 12.3449 4.1907 11.7029 3.79234Z" fill="currentColor" class="ColorScheme-Text" />
</svg>