<svg xmlns="http://www.w3.org/2000/svg" width="12" height="17" viewBox="0 0 12 17" fill="none">
<defs id="defs3051"><style type="text/css" id="current-color-scheme">.ColorScheme-Text { color: #232629; }</style></defs><path d="M1.06055 0.353516C0.865306 0.158274 0.548757 0.158274 0.353516 0.353516C0.158274 0.548757 0.158274 0.865306 0.353516 1.06055L10.2991 11.0061C10.4944 11.2014 10.8109 11.2014 11.0061 11.0061C11.2014 10.8109 11.2014 10.4944 11.0061 10.2991L1.06055 0.353516Z" fill="currentColor" class="ColorScheme-Text" />
<path d="M5.20703 0.207031C4.3786 0.207031 3.62883 0.543044 3.08594 1.08594L8.20703 6.20703V3.20703C8.20703 1.55018 6.86389 0.207031 5.20703 0.207031ZM2.20703 4.20703V8.20703C2.20703 9.86388 3.55018 11.207 5.20703 11.207C6.29254 11.207 7.23502 10.6253 7.76172 9.76172L2.20703 4.20703ZM0.707031 6.20703C0.430889 6.20703 0.207031 6.43089 0.207031 6.70703V8.20703C0.207031 10.5408 1.80581 12.5015 3.96792 13.0527C4.10618 13.088 4.20703 13.21 4.20703 13.3526V14.907C4.20703 15.0727 4.07272 15.207 3.90703 15.207H2.70703C2.43089 15.207 2.20703 15.4309 2.20703 15.707C2.20703 15.9832 2.43089 16.207 2.70703 16.207H7.70703C7.98317 16.207 8.20703 15.9832 8.20703 15.707C8.20703 15.4309 7.98317 15.207 7.70703 15.207H6.50703C6.34135 15.207 6.20703 15.0727 6.20703 14.907V13.3526C6.20703 13.21 6.30783 13.088 6.44605 13.0526C7.42407 12.8021 8.27993 12.2578 8.9299 11.5248C9.0909 11.3433 9.0698 11.0698 8.89821 10.8982C8.68352 10.6835 8.32768 10.7171 8.1203 10.9388C7.39169 11.7179 6.35805 12.207 5.20703 12.207C2.99789 12.207 1.20703 10.4162 1.20703 8.20703V6.70703C1.20703 6.43089 0.983174 6.20703 0.707031 6.20703Z" fill="currentColor" class="ColorScheme-Text" />
</svg>