<svg xmlns="http://www.w3.org/2000/svg" width="16" height="16" viewBox="0 0 16 16" fill="none">
<defs id="defs3051"><style type="text/css" id="current-color-scheme">.ColorScheme-Text { color: #232629; }</style></defs><rect x="1.69092" y="4.44458" width="12.6184" height="7.11073" rx="0.5" stroke="currentColor" class="ColorScheme-Text" />
<path d="M4.75659 8.13513H3.21574" stroke="currentColor" stroke-linecap="round" class="ColorScheme-Text" />
<path d="M12.6545 8.13513L11.0356 8.13513" stroke="currentColor" stroke-linecap="round" class="ColorScheme-Text" />
<path d="M12.6545 6.21838L12.0154 6.21838" stroke="currentColor" stroke-linecap="round" class="ColorScheme-Text" />
<path d="M3.85498 6.21838L3.21582 6.21838" stroke="currentColor" stroke-linecap="round" class="ColorScheme-Text" />
<path d="M5.95117 6.21838H5.63159" stroke="currentColor" stroke-linecap="round" class="ColorScheme-Text" />
<path d="M6.81006 8.13513H6.49048" stroke="currentColor" stroke-linecap="round" class="ColorScheme-Text" />
<path d="M9.25049 8.13513H8.93091" stroke="currentColor" stroke-linecap="round" class="ColorScheme-Text" />
<path d="M8 6.21838H7.68042" stroke="currentColor" stroke-linecap="round" class="ColorScheme-Text" />
<path d="M10.0632 6.21838H9.74365" stroke="currentColor" stroke-linecap="round" class="ColorScheme-Text" />
<path d="M10.4253 9.94495H5.38523" stroke="currentColor" stroke-linecap="round" class="ColorScheme-Text" />
<path d="M3.71802 9.94495H3.21582" stroke="currentColor" stroke-linecap="round" class="ColorScheme-Text" />
<path d="M12.6545 9.94495H12.1523" stroke="currentColor" stroke-linecap="round" class="ColorScheme-Text" />
<path d="M8.24149 4.21759C8.13879 4.14047 8.05799 2.97767 9.39467 2.97767C10.7313 2.97767 11.297 2.92509 11.297 1.99964" stroke="currentColor" stroke-linecap="round" class="ColorScheme-Text" />
</svg>